<?xml version="1.0" encoding="utf-8"?>
<!-- Generator: Adobe Illustrator 16.0.0, SVG Export Plug-In . SVG Version: 6.00 Build 0)  -->
<!DOCTYPE svg PUBLIC "-//W3C//DTD SVG 1.1//EN" "http://www.w3.org/Graphics/SVG/1.1/DTD/svg11.dtd">
<svg version="1.1" fill="#000000" xmlns="http://www.w3.org/2000/svg" xmlns:xlink="http://www.w3.org/1999/xlink" x="0px" y="0px" width="1256px"
	 height="916px" viewBox="0 0 1256 916" enable-background="new 0 0 1256 916" xml:space="preserve">
<g id="Layer_1" opacity="0.1">
	<g>
		<polygon id="Fill-259" fill="#C4BBE1" points="487.469,211.958 668.12,885.351 685.985,885.283 500.385,193.439 		"/>
		<polygon id="Fill-260" fill="#C4BBE1" points="514.452,171.48 706.609,885.351 724.531,885.279 527.411,152.965 		"/>
		<polygon id="Fill-261" fill="#C4BBE1" points="545.29,131.004 747.188,885.351 765.006,885.283 558.172,112.492 		"/>
		<polygon id="Fill-262" fill="#C4BBE1" points="574.199,90.534 787.603,885.351 805.479,885.283 587.124,72.017 		"/>
		<polygon id="Fill-263" fill="#C4BBE1" points="603.109,47.907 826.239,883.423 844.025,883.354 617.827,36.36 614.474,31.544 		
			"/>
		<polygon id="Fill-264" fill="#C4BBE1" points="864.744,885.351 882.572,885.279 680.237,128.926 651.292,87.436 		"/>
		<polygon id="Fill-265" fill="#C4BBE1" points="905.271,883.423 923.048,883.353 745.675,219.44 716.822,178.021 		"/>
		<polygon id="Fill-266" fill="#C4BBE1" points="943.705,883.423 961.594,883.351 807.546,310.063 778.497,268.605 		"/>
		<polygon id="Fill-267" fill="#C4BBE1" points="982.31,883.423 1000.14,883.351 871.052,400.705 842.099,359.188 		"/>
		<polygon id="Fill-268" fill="#C4BBE1" points="1022.87,883.423 1040.612,883.353 936.44,493.097 907.628,451.702 		"/>
		<polygon id="Fill-269" fill="#C4BBE1" points="1059.295,883.423 1077.232,883.353 996.501,583.733 967.374,542.286 		"/>
		<g id="Group-281" transform="translate(366.000000, 446.000000)">
			<polygon id="Clip-280" fill="none" points="-350.075,440.961 841.249,436.371 246.333,-412.485 			"/>
		</g>
		<g id="Group-284" transform="translate(366.000000, 446.000000)">
			<polygon id="Clip-283" fill="none" points="-350.075,440.961 841.249,436.371 246.333,-412.485 			"/>
		</g>
		<g id="Group-287" transform="translate(366.000000, 446.000000)">
			<polygon id="Clip-286" fill="none" points="-350.075,440.961 841.249,436.371 246.333,-412.485 			"/>
		</g>
		<g id="Group-290" transform="translate(366.000000, 446.000000)">
			<polygon id="Clip-289" fill="none" points="-350.075,440.961 841.249,436.371 246.333,-412.485 			"/>
		</g>
		<g id="Group-293" transform="translate(366.000000, 446.000000)">
			<polygon id="Clip-292" fill="none" points="-350.075,440.961 841.249,436.371 246.333,-412.485 			"/>
		</g>
		<polygon id="Fill-305" fill="#C4BBE1" points="34.547,861.596 41.484,887.277 59.602,887.206 47.646,842.948 		"/>
		<polygon id="Fill-306" fill="#C4BBE1" points="63.457,821.051 81.686,887.277 100.076,887.206 76.752,802.476 		"/>
		<polygon id="Fill-307" fill="#C4BBE1" points="90.439,780.554 120.087,887.277 138.622,887.206 103.841,762.001 		"/>
		<polygon id="Fill-308" fill="#C4BBE1" points="119.35,740.065 157.821,887.277 175.241,887.206 131.947,721.528 		"/>
		<polygon id="Fill-309" fill="#C4BBE1" points="148.259,699.583 198.039,887.277 215.716,887.206 161.039,681.053 		"/>
		<polygon id="Fill-310" fill="#C4BBE1" points="175.241,659.106 236.402,887.277 254.262,887.21 188.154,640.578 		"/>
		<polygon id="Fill-311" fill="#C4BBE1" points="204.152,616.699 276.738,885.351 294.737,885.279 217.165,598.179 		"/>
		<polygon id="Fill-312" fill="#C4BBE1" points="231.134,576.22 315.178,885.351 333.282,885.279 244.223,557.705 		"/>
		<polygon id="Fill-313" fill="#C4BBE1" points="261.972,535.747 355.872,885.351 373.757,885.279 274.904,517.229 		"/>
		<polygon id="Fill-314" fill="#C4BBE1" points="290.881,495.269 394.602,885.351 412.303,885.279 303.681,476.756 		"/>
		<polygon id="Fill-315" fill="#C4BBE1" points="317.864,454.797 433.039,885.351 450.85,885.279 330.742,436.283 		"/>
		<polygon id="Fill-316" fill="#C4BBE1" points="346.773,414.317 473.422,885.351 491.324,885.279 359.714,395.808 		"/>
		<polygon id="Fill-317" fill="#C4BBE1" points="375.684,373.847 513.82,885.351 531.798,885.279 388.682,355.335 		"/>
		<polygon id="Fill-318" fill="#C4BBE1" points="402.667,333.372 550.583,885.351 568.417,885.279 415.565,314.862 		"/>
		<polygon id="Fill-319" fill="#C4BBE1" points="431.577,292.897 590.981,885.351 608.891,885.281 444.525,274.387 		"/>
		<polygon id="Fill-320" fill="#C4BBE1" points="460.487,252.422 629.646,885.351 647.438,885.281 473.349,233.913 		"/>
	</g>
</g>
<g id="Layer_2">
</g>
</svg>
