<?xml version="1.0" encoding="utf-8"?>
<!-- Generator: Adobe Illustrator 16.0.0, SVG Export Plug-In . SVG Version: 6.00 Build 0)  -->
<!DOCTYPE svg PUBLIC "-//W3C//DTD SVG 1.0//EN" "http://www.w3.org/TR/2001/REC-SVG-20010904/DTD/svg10.dtd">
<svg version="1.0" id="Layer_1" xmlns="http://www.w3.org/2000/svg" xmlns:xlink="http://www.w3.org/1999/xlink" x="0px" y="0px"
	 viewBox="0 0 612 792" enable-background="new 0 0 612 792" xml:space="preserve">
<g opacity="0.05">
	<polygon id="Fill-47" fill="#6350A2" points="557.599,74.795 557.991,75.301 558.483,73.646 	"/>
	<polygon id="Fill-162" fill="#432F91" points="3.631,309.685 7.229,315.876 13.561,318.58 7.313,307.822 	"/>
	<polygon id="Fill-163" fill="#432F91" points="13.561,303.909 24.472,322.472 30.938,325.199 17.319,302.03 	"/>
	<polygon id="Fill-164" fill="#432F91" points="22.663,298.906 40.356,329.147 46.66,331.819 26.327,297.064 	"/>
	<polygon id="Fill-165" fill="#432F91" points="32.593,293.955 56.995,336.574 63.209,339.267 36.205,292.1 	"/>
	<polygon id="Fill-166" fill="#432F91" points="43.35,289.825 75.119,344.836 81.414,347.541 47.01,287.962 	"/>
	<polygon id="Fill-167" fill="#432F91" points="51.625,284.844 90.785,351.48 97.136,354.161 55.317,282.997 	"/>
	<polygon id="Fill-168" fill="#432F91" points="62.382,279.077 108.221,358.889 114.513,361.607 66.04,277.205 	"/>
	<polygon id="Fill-169" fill="#432F91" points="72.312,274.115 124.816,366.333 131.063,369.055 75.943,272.241 	"/>
	<polygon id="Fill-170" fill="#432F91" points="81.414,269.138 142.07,372.972 148.44,375.675 85.116,267.275 	"/>
	<polygon id="Fill-171" fill="#432F91" points="91.344,264.176 158.664,380.415 164.989,383.122 95.021,262.311 	"/>
	<polygon id="Fill-172" fill="#432F91" points="101.274,259.203 175.25,387.047 181.539,389.742 104.93,257.346 	"/>
	<polygon id="Fill-173" fill="#432F91" points="111.204,254.241 191.829,394.488 198.088,397.189 114.842,252.381 	"/>
	<polygon id="Fill-174" fill="#432F91" points="120.306,248.451 208.35,401.106 214.639,403.809 123.96,246.588 	"/>
	<polygon id="Fill-175" fill="#432F91" points="131.063,245.135 226.531,409.391 232.843,412.084 134.732,243.278 	"/>
	<polygon id="Fill-176" fill="#432F91" points="140.993,239.345 243.105,416.006 249.392,418.704 144.647,237.486 	"/>
	<polygon id="Fill-177" fill="#432F91" points="150.095,234.391 259.633,424.267 265.942,426.979 153.761,232.521 	"/>
	<polygon id="Fill-178" fill="#432F91" points="160.025,229.419 276.204,430.896 282.491,433.599 163.679,227.557 	"/>
	<polygon id="Fill-179" fill="#432F91" points="169.955,224.457 292.775,438.339 299.041,441.046 173.597,222.591 	"/>
	<polygon id="Fill-180" fill="#432F91" points="179.884,219.49 305.544,436.908 308.143,433.205 183.547,217.627 	"/>
	<polygon id="Fill-181" fill="#432F91" points="188.986,213.697 312.156,426.15 314.763,422.449 192.66,211.834 	"/>
	<polygon id="Fill-182" fill="#432F91" points="198.916,209.56 318.787,417.049 321.383,413.349 202.574,207.697 	"/>
	<polygon id="Fill-183" fill="#432F91" points="208.018,204.594 325.398,407.119 328.003,403.418 211.688,202.732 	"/>
	<polygon id="Fill-184" fill="#432F91" points="218.775,199.636 332.856,398.018 335.449,394.302 222.433,197.768 	"/>
	<polygon id="Fill-185" fill="#432F91" points="228.705,194.664 340.294,387.26 342.897,383.559 232.373,192.802 	"/>
	<polygon id="Fill-186" fill="#432F91" points="238.635,189.698 346.926,377.331 349.517,373.632 242.287,187.838 	"/>
	<polygon id="Fill-187" fill="#432F91" points="247.737,184.733 353.539,367.4 356.137,363.703 251.4,182.873 	"/>
	<polygon id="Fill-188" fill="#432F91" points="257.667,180.595 360.168,358.298 362.757,354.602 261.315,178.735 	"/>
	<polygon id="Fill-189" fill="#432F91" points="266.769,174.802 366.779,347.541 369.377,343.845 270.43,172.943 	"/>
	<polygon id="Fill-190" fill="#432F91" points="276.699,169.836 373.413,337.611 375.997,333.917 280.343,167.979 	"/>
	<polygon id="Fill-191" fill="#432F91" points="287.456,164.88 381.677,328.509 384.271,324.798 291.113,163.013 	"/>
	<polygon id="Fill-192" fill="#432F91" points="297.387,159.915 388.31,318.58 390.891,314.869 301.024,158.049 	"/>
	<polygon id="Fill-193" fill="#432F91" points="306.488,154.95 394.92,308.649 397.511,304.938 310.141,153.083 	"/>
	<polygon id="Fill-194" fill="#432F91" points="316.418,149.157 401.556,297.892 404.131,294.185 320.052,147.292 	"/>
	<polygon id="Fill-195" fill="#432F91" points="326.348,144.191 408.99,287.962 411.577,284.254 329.995,142.326 	"/>
	<polygon id="Fill-196" fill="#432F91" points="336.278,140.042 416.429,278.033 419.026,274.348 339.941,138.189 	"/>
	<polygon id="Fill-197" fill="#432F91" points="345.38,135.077 423.034,268.103 425.646,264.42 349.059,133.224 	"/>
	<polygon id="Fill-198" fill="#432F91" points="355.31,130.123 429.669,259.001 432.264,255.296 358.967,128.259 	"/>
	<polygon id="Fill-199" fill="#432F91" points="364.412,125.155 436.277,249.071 438.884,245.369 368.086,123.294 	"/>
	<polygon id="Fill-200" fill="#432F91" points="374.342,120.192 442.913,239.141 445.505,235.439 377.994,118.329 	"/>
	<polygon id="Fill-201" fill="#432F91" points="385.099,114.399 451.176,228.384 453.779,224.683 388.771,112.537 	"/>
	<polygon id="Fill-202" fill="#432F91" points="395.029,109.433 457.813,218.455 460.399,214.756 398.672,107.572 	"/>
	<polygon id="Fill-203" fill="#432F91" points="404.131,105.295 464.418,209.352 467.021,205.655 407.796,103.435 	"/>
	<polygon id="Fill-204" fill="#432F91" points="414.061,99.517 471.059,199.422 473.638,195.695 417.697,97.642 	"/>
	<polygon id="Fill-205" fill="#432F91" points="423.99,95.379 478.489,190.32 481.087,186.595 427.649,93.505 	"/>
	<polygon id="Fill-206" fill="#432F91" points="433.919,89.587 485.134,179.563 487.707,175.838 437.546,87.713 	"/>
	<polygon id="Fill-207" fill="#432F91" points="443.023,85.431 491.736,169.633 494.325,165.945 446.673,83.576 	"/>
	<polygon id="Fill-208" fill="#432F91" points="453.779,80.464 499.21,159.703 501.773,156.018 457.396,78.61 	"/>
	<polygon id="Fill-209" fill="#432F91" points="462.881,74.67 505.808,148.946 508.394,145.264 466.522,72.818 	"/>
	<polygon id="Fill-210" fill="#432F91" points="472.812,70.531 512.457,139.844 515.012,136.166 476.412,68.681 	"/>
	<polygon id="Fill-211" fill="#432F91" points="482.742,64.76 519.886,129.914 522.461,126.195 486.369,62.889 	"/>
	<polygon id="Fill-212" fill="#432F91" points="491.844,60.622 527.252,120.812 529.907,117.091 495.587,58.751 	"/>
	<polygon id="Fill-213" fill="#432F91" points="501.773,55.656 533.903,110.882 536.527,107.165 505.473,53.786 	"/>
	<polygon id="Fill-214" fill="#432F91" points="511.702,49.863 541.316,100.125 543.974,96.409 515.449,47.994 	"/>
	<polygon id="Fill-215" fill="#432F91" points="521.632,44.897 547.972,90.195 550.595,86.482 525.326,43.029 	"/>
	<polygon id="Fill-216" fill="#432F91" points="530.733,40.758 554.555,81.093 557.215,77.382 534.483,38.892 	"/>
	<polygon id="Fill-217" fill="#432F91" points="540.664,35.006 561.219,71.163 563.835,67.374 544.35,33.099 	"/>
	<polygon id="Fill-218" fill="#432F91" points="550.595,29.997 568.619,60.406 571.281,56.703 554.349,28.134 	"/>
	<polygon id="Fill-219" fill="#432F91" points="560.524,25.856 575.295,51.304 577.901,47.607 564.194,23.997 	"/>
	<polygon id="Fill-220" fill="#432F91" points="570.455,20.887 582.677,41.374 585.348,37.687 574.218,19.032 	"/>
	<polygon id="Fill-221" fill="#432F91" points="580.383,15.087 589.384,30.617 591.968,26.944 584.028,13.24 	"/>
	<polygon id="Fill-222" fill="#432F91" points="589.486,10.11 595.901,20.687 598.588,17.038 593.272,8.275 	"/>
	<polygon id="Fill-223" fill="#432F91" points="599.415,5.945 602.683,11.585 605.208,7.991 602.975,4.138 	"/>
	<polygon id="Fill-224" fill="#432F91" points="609.345,0.833 609.827,1.655 611,0 	"/>
	<polygon id="Fill-304" fill="#C4BBDD" points="301.61,441.813 303.091,441.809 302.681,440.278 	"/>
</g>
</svg>
