<?xml version="1.0" encoding="utf-8"?>
<!DOCTYPE svg PUBLIC "-//W3C//DTD SVG 1.0//EN" "http://www.w3.org/TR/2001/REC-SVG-20010904/DTD/svg10.dtd">
<svg version="1.0" id="Layer_1" xmlns="http://www.w3.org/2000/svg" xmlns:xlink="http://www.w3.org/1999/xlink" x="0px" y="0px"
 viewBox="0 0 612 792" enable-background="new 0 0 612 792" xml:space="preserve">
<g opacity="0.01">
	<polygon id="Fill-48" fill="#6350A2" points="90.94,635.455 80.544,675.469 85.102,682.195 101.223,620.158 	"/>
	<polygon id="Fill-49" fill="#6350A2" points="120.208,592.65 93.837,691.705 98.515,698.441 130.764,577.324 	"/>
	<polygon id="Fill-50" fill="#6350A2" points="146.98,552.658 105.654,709.477 110.252,716.164 157.35,537.443 	"/>
	<polygon id="Fill-51" fill="#6350A2" points="176.169,512.809 117.47,728.666 122.226,735.365 186.891,497.564 	"/>
	<polygon id="Fill-52" fill="#6350A2" points="204.379,471.477 130.764,746.381 135.454,753.092 214.955,456.207 	"/>
	<polygon id="Fill-53" fill="#6350A2" points="230.915,431.48 141.103,762.68 145.815,769.338 241.542,416.326 	"/>
	<polygon id="Fill-54" fill="#6350A2" points="260.55,390.15 155.874,780.393 160.542,787.063 271.083,374.969 	"/>
	<polygon id="Fill-55" fill="#6350A2" points="288.626,348.86 172.121,785.586 179.232,783.107 299.146,333.613 	"/>
	<polygon id="Fill-56" fill="#6350A2" points="315.237,308.922 189.845,778.201 196.944,775.729 325.732,293.732 	"/>
	<polygon id="Fill-57" fill="#6350A2" points="343.314,267.567 209.046,770.816 216.135,768.344 353.796,252.375 	"/>
	<polygon id="Fill-58" fill="#6350A2" points="372.769,227.726 228.248,766.385 235.395,763.906 383.337,212.495 	"/>
	<polygon id="Fill-59" fill="#6350A2" points="400.852,186.364 247.45,759 254.584,756.521 411.401,171.138 	"/>
	<polygon id="Fill-60" fill="#6350A2" points="430.407,146.447 268.128,751.615 275.249,749.143 440.941,131.258 	"/>
	<polygon id="Fill-61" fill="#6350A2" points="456.926,106.562 284.375,745.707 291.544,743.238 467.529,91.378 	"/>
	<polygon id="Fill-62" fill="#6350A2" points="485.008,63.759 303.577,738.32 310.738,735.844 495.593,48.544 	"/>
	<polygon id="Fill-63" fill="#6350A2" points="513.162,25.359 324.256,733.891 331.353,731.412 523.656,10.141 	"/>
	<polygon id="Fill-64" fill="#6350A2" points="343.457,726.506 350.59,724.029 528.087,62.332 528.087,38.205 	"/>
	<polygon id="Fill-65" fill="#6350A2" points="362.658,719.119 369.79,716.645 528.087,125.853 528.087,101.717 	"/>
	<polygon id="Fill-66" fill="#6350A2" points="381.86,713.211 388.987,710.736 528.084,190.857 528.087,166.707 	"/>
	<g id="Group-76" transform="translate(676.000000, 0.000000)">
		<polygon id="Clip-75" fill="none" points="-603.333,661.936 -514.528,789 -148.741,661.936 -148.707,5.557 		"/>
	</g>
	<g id="Group-79" transform="translate(676.000000, 0.000000)">
		<polygon id="Clip-78" fill="none" points="-603.333,661.936 -514.528,789 -148.741,661.936 -148.707,5.557 		"/>
	</g>
	<g id="Group-82" transform="translate(676.000000, 0.000000)">
		<polygon id="Clip-81" fill="none" points="-603.333,661.936 -514.528,789 -148.741,661.936 -148.707,5.557 		"/>
	</g>
	<g id="Group-85" transform="translate(676.000000, 0.000000)">
		<polygon id="Clip-84" fill="none" points="-603.333,661.936 -514.528,789 -148.741,661.936 -148.707,5.557 		"/>
	</g>
	<g id="Group-88" transform="translate(676.000000, 0.000000)">
		<polygon id="Clip-87" fill="none" points="-603.333,661.936 -514.528,789 -148.741,661.936 -148.707,5.557 		"/>
	</g>
	<g id="Group-91" transform="translate(676.000000, 0.000000)">
		<polygon id="Clip-90" fill="none" points="-603.333,661.936 -514.528,789 -148.741,661.936 -148.707,5.557 		"/>
	</g>
	<g id="Group-94" transform="translate(676.000000, 0.000000)">
		<polygon id="Clip-93" fill="none" points="-603.333,661.936 -514.528,789 -148.741,661.936 -148.707,5.557 		"/>
	</g>
</g>
</svg>
